# xmcd
#
# Track frame offsets:
# 150
# 13016
# 36903
# 52812
# 66237
# 85702
# 103684
# 121715
# 134869
# 147332
# 158108
# 173510
# 184768
# 195109
# 210699
# 227192
# 241436
# 258579
# 270842
# 283338
# 297178
# 307562
# 317682
# 330000
# 336266
#
# Disc length: 4700 seconds
#
# Revision: 0
# Processed by: cddbd v1.5.2PL0 Copyright (c) Steve Scherf et al.
# Submitted via: Audion 3.0.2 (http://www.panic.com/audion/)
#
DISCID=5c125a19
DTITLE=MILES - THE RESUME
DYEAR=1900
DGENRE=
TTITLE0=WHAT IT IS
TTITLE1=ACT LIKE YOU KNOW
TTITLE2=LAYEM DOWN
TTITLE3=TRAP ALL DAY
TTITLE4=MONEY THAT I LOST 
TTITLE5=DATS DAT
TTITLE6=MOVING FOR THE SCRILLA
TTITLE7=PHILLY TO BEAN
TTITLE8=TAKE IT TO THE FLOW
TTITLE9=GETTIN MONEY
TTITLE10=ALL 4 THE MONEY
TTITLE11=IF IT AINT
TTITLE12=BRING IT BACK 
TTITLE13=CERTIFIED CHICK
TTITLE14=REAL LANGUAGE
TTITLE15=WHAT IF
TTITLE16=STILL KNOW YOU
TTITLE17=FLY LIKE ME 
TTITLE18=GOTTA EAT 
TTITLE19=DEAL ON THE PURP
TTITLE20=MONSTA
TTITLE21=POPPIN IN MY HOOD
TTITLE22=DOT MY I'S
TTITLE23=SMOKE DID IT
TTITLE24=BELLS OF PARADISE 
EXTD=
EXTT0=
EXTT1=
EXTT2=
EXTT3=
EXTT4=
EXTT5=
EXTT6=
EXTT7=
EXTT8=
EXTT9=
EXTT10=
EXTT11=
EXTT12=
EXTT13=
EXTT14=
EXTT15=
EXTT16=
EXTT17=
EXTT18=
EXTT19=
EXTT20=
EXTT21=
EXTT22=
EXTT23=
EXTT24=
PLAYORDER=
